<?xml version="1.0" standalone="no"?>
<!DOCTYPE svg PUBLIC "-//W3C//DTD SVG 20010904//EN"
 "http://www.w3.org/TR/2001/REC-SVG-20010904/DTD/svg10.dtd">
<svg version="1.0" xmlns="http://www.w3.org/2000/svg"
 width="1080.000000pt" height="1080.000000pt" viewBox="0 0 1080.000000 1080.000000"
 preserveAspectRatio="xMidYMid meet">

<g transform="translate(540.000000,540.000000) scale(0.050000,-0.050000)"
fill="#000000" stroke="none">
<path d="M9280 10368 c-546 -28 -1264 -209 -1745 -439 -83 -39 -178 -84 -213
-100 -196 -91 -748 -456 -917 -608 -187 -167 -251 -226 -321 -296 -391 -389
-745 -890 -984 -1395 -192 -408 -353 -928 -414 -1340 -15 -96 -31 -202 -36
-235 -5 -33 -15 -169 -21 -302 -31 -630 64 -1306 262 -1868 33 -93 67 -190 76
-215 9 -25 65 -151 126 -280 419 -896 1102 -1653 1952 -2162 238 -142 573
-306 775 -378 74 -26 180 -64 235 -84 253 -89 789 -200 1100 -226 1231 -103
2438 239 3419 969 116 87 247 191 291 232 45 41 124 114 177 162 266 243 609
674 830 1042 139 232 309 582 381 785 25 69 61 170 81 225 19 55 62 208 95
340 239 960 189 1951 -144 2885 -46 129 -117 305 -158 390 -41 85 -86 182
-102 215 -56 123 -280 480 -422 672 -136 184 -438 534 -532 615 -21 18 -101
90 -178 161 -309 279 -763 578 -1173 772 -426 201 -918 348 -1395 419 -357 53
-652 65 -1045 44z m1685 -403 c22 -3 47 -9 55 -12 8 -3 26 -8 40 -10 13 -2 30
-9 36 -14 7 -5 16 -9 20 -7 13 4 246 -60 299 -82 11 -4 43 -16 70 -25 28 -10
78 -30 113 -46 35 -16 68 -29 73 -29 5 0 17 -4 27 -10 9 -5 51 -24 92 -41 84
-36 160 -76 237 -126 28 -18 54 -33 57 -33 16 0 220 -140 297 -204 47 -39 121
-98 164 -131 99 -75 479 -454 497 -495 7 -16 18 -30 24 -30 6 0 17 -12 25 -27
8 -16 29 -43 47 -61 30 -30 39 -53 41 -104 1 -10 5 -18 10 -18 5 0 12 8 14 18
3 10 5 7 6 -10 1 -22 -2 -26 -16 -21 -10 3 -28 17 -39 29 -12 13 -27 24 -34
24 -18 0 -50 30 -50 47 0 7 -7 13 -15 13 -8 0 -15 4 -15 9 0 5 -9 13 -21 16
-11 4 -25 17 -31 30 -6 13 -23 29 -39 35 -16 7 -31 20 -34 29 -3 9 -22 25 -42
36 -20 11 -56 39 -79 63 -43 44 -89 79 -137 107 -15 9 -36 24 -46 33 -67 64
-123 112 -130 112 -4 0 -21 12 -36 26 -15 14 -33 23 -41 20 -7 -3 -16 3 -19
13 -3 10 -16 23 -28 28 -24 11 -158 110 -167 123 -3 4 -19 10 -36 14 -16 4
-36 16 -44 26 -8 11 -19 20 -25 20 -6 0 -40 19 -74 43 -35 23 -69 45 -75 49
-12 8 -85 50 -159 92 -26 14 -54 26 -61 26 -8 0 -16 7 -20 15 -3 8 -13 15 -22
15 -10 0 -25 6 -33 14 -9 8 -38 21 -66 31 -27 9 -67 27 -87 41 -21 13 -42 24
-46 24 -5 0 -21 9 -34 20 -14 11 -67 34 -118 51 -51 17 -124 46 -164 65 -39
20 -89 44 -111 55 -58 27 -184 70 -226 76 -26 3 -40 12 -47 28 -6 13 -8 26 -5
29 7 7 174 1 228 -9z m-865 -769 c107 -14 227 -32 265 -40 382 -81 703 -190
1020 -347 218 -107 341 -179 555 -326 227 -156 550 -482 657 -663 39 -66 38
-72 -20 -102 -69 -36 -200 -47 -442 -38 -270 11 -290 21 -525 260 -202 204
-235 226 -330 217 -76 -7 -112 -32 -265 -187 -190 -193 -302 -253 -516 -280
-225 -29 -3405 -20 -3722 10 -120 11 -168 32 -179 77 -11 44 6 82 79 173 177
222 397 418 708 632 193 133 505 296 695 363 36 13 90 33 120 45 220 84 485
150 790 196 321 49 779 53 1110 10z m-3853 -428 c-3 -8 -6 -5 -6 6 -1 11 2 17
5 13 3 -3 4 -12 1 -19z m-13 -13 c4 -11 -3 -19 -19 -25 -14 -5 -25 -16 -25
-24 0 -15 -144 -198 -161 -204 -5 -2 -9 -8 -9 -13 0 -5 -16 -25 -35 -44 -19
-20 -41 -48 -49 -63 -8 -15 -26 -40 -40 -56 -14 -16 -26 -33 -26 -37 0 -4 -7
-14 -15 -22 -8 -8 -37 -45 -66 -82 -28 -37 -59 -75 -68 -85 -51 -56 -61 -70
-81 -108 -12 -23 -26 -42 -31 -42 -5 0 -9 -5 -9 -11 0 -15 -58 -74 -66 -67 -6
6 37 102 69 153 23 38 201 291 254 362 74 100 342 383 363 383 4 0 11 -7 14
-15z m7011 -345 c3 -5 -1 -10 -10 -10 -9 0 -13 5 -10 10 3 6 8 10 10 10 2 0 7
-4 10 -10z m-2770 -1220 c38 -14 115 -90 225 -220 220 -259 200 -251 600 -261
168 -4 544 -8 835 -9 553 -1 962 -12 1054 -30 30 -6 62 -17 71 -25 20 -18 59
-136 95 -290 15 -60 33 -135 40 -165 22 -86 45 -239 45 -300 -1 -82 -22 -101
-130 -114 -30 -4 -75 -11 -100 -17 -25 -5 -65 -12 -90 -15 -87 -11 -2300 -16
-2469 -5 -227 14 -245 23 -445 225 -189 192 -234 226 -295 226 -39 0 -54 -6
-93 -38 -25 -21 -52 -45 -59 -53 -8 -8 -41 -44 -73 -79 -134 -147 -223 -233
-261 -252 -71 -37 -235 -40 -1785 -33 -1486 6 -1579 7 -1597 18 -5 3 -49 9
-98 12 -73 5 -96 10 -131 33 -24 15 -47 39 -52 53 -13 34 8 177 58 394 84 371
94 397 157 415 98 28 686 39 2163 42 531 1 1118 4 1305 8 l340 6 59 27 c49 23
96 64 260 225 111 109 217 206 236 215 40 19 96 22 135 7z m4056 -1632 c21
-144 10 -523 -22 -758 -43 -310 -63 -412 -124 -610 -14 -47 -30 -99 -34 -116
-5 -18 -15 -42 -24 -54 -38 -54 -30 31 28 320 19 91 41 217 49 280 9 63 20
144 26 180 13 83 50 599 50 706 0 45 3 103 7 129 6 47 6 47 19 22 8 -14 19
-58 25 -99z m-5443 -418 c27 -12 110 -86 237 -210 132 -129 208 -197 237 -209
29 -13 78 -21 148 -25 58 -3 791 -8 1630 -11 1543 -6 1928 -13 2010 -38 51
-15 81 -56 60 -82 -7 -8 -29 -82 -51 -164 -66 -255 -206 -621 -252 -659 -20
-17 -142 -29 -367 -37 -102 -3 -252 -10 -335 -16 -187 -12 -3129 -12 -3242 0
-114 12 -144 31 -368 236 -210 193 -240 208 -323 166 -20 -11 -127 -94 -236
-185 -110 -92 -224 -178 -255 -194 l-56 -27 -495 0 c-498 0 -1053 16 -1209 36
-47 5 -97 17 -112 26 -50 30 -149 286 -290 756 -36 120 -36 124 31 146 56 20
518 31 1585 39 l990 7 57 28 c42 21 104 73 232 197 253 244 283 261 374 220z
m-1513 -1918 c22 -15 109 -92 194 -172 210 -197 259 -239 311 -263 42 -20 67
-22 380 -27 184 -4 1064 -7 1955 -8 1577 -3 1879 -7 1923 -31 12 -6 25 -23 28
-38 6 -21 1 -31 -22 -51 -16 -13 -83 -73 -149 -132 -106 -95 -271 -224 -405
-317 -150 -105 -453 -265 -640 -338 -52 -20 -111 -43 -130 -51 -19 -8 -48 -17
-65 -20 -16 -3 -63 -16 -105 -29 -41 -13 -109 -31 -150 -41 -41 -9 -80 -20
-85 -25 -6 -4 -34 -10 -63 -13 -29 -3 -81 -14 -116 -25 -36 -11 -91 -23 -123
-26 -32 -4 -74 -11 -93 -15 -19 -5 -60 -11 -91 -12 -32 -2 -55 -6 -53 -9 3 -5
-106 -16 -213 -23 -13 0 -23 -3 -23 -6 0 -9 -489 -1 -620 9 -189 16 -401 45
-515 71 -27 6 -57 13 -65 15 -210 47 -726 239 -884 329 -339 195 -516 317
-724 500 -57 50 -113 97 -125 104 -30 18 -77 86 -77 110 0 27 28 49 92 71 95
33 115 48 230 179 172 193 270 293 303 308 37 17 68 11 120 -24z"/>
</g>
</svg>